<?xml version="1.0" encoding="utf-8"?>
<!-- Generator: Adobe Illustrator 24.1.2, SVG Export Plug-In . SVG Version: 6.00 Build 0)  -->
<svg version="1.1" id="layer" xmlns="http://www.w3.org/2000/svg" xmlns:xlink="http://www.w3.org/1999/xlink" x="0px" y="0px"
	 viewBox="0 0 150.8 168" style="enable-background:new 0 0 150.8 168;" xml:space="preserve">
<style type="text/css">
	.st0{fill:#FFFFFF;}
</style>
<g id="logos">
	<g id="Page-1">
		<g id="main">
			<g id="nav">
				<path id="logo" class="st0" d="M135.7,0H15.1C6.8,0,0,6.7,0,15v0.1v137.8c0,8.3,6.7,15.1,15,15.1h0.1h120.6
					c8.3,0,15.1-6.7,15.1-15v-0.1V15.1c0-8.3-6.7-15.1-15-15.1C135.8,0,135.8,0,135.7,0z M142.5,152.9c0.1,3.7-2.9,6.7-6.5,6.7
					c-0.1,0-0.1,0-0.2,0H15.1c-3.7,0.1-6.7-2.9-6.7-6.5c0-0.1,0-0.1,0-0.2V15.1c-0.1-3.7,2.9-6.7,6.5-6.7c0.1,0,0.1,0,0.2,0h120.6
					c3.7-0.1,6.7,2.9,6.7,6.5c0,0.1,0,0.1,0,0.2v137.8H142.5z M37.9,142.8l18.9-16.9L37.9,109V142.8z M105.9,74.8
					c-5.4-5.2-12.7-7.9-20.2-7.6c-10.7,0.3-21.4,2.2-31.5,5.9V25.3H37.4V98l11.8-5.5c0,0,19.3-8.8,36.2-8.8c8.4,0,10.5,4.6,10.5,8.8
					v50.4h16.9V92.5C113.1,85.8,110.6,79.4,105.9,74.8z M83.7,52.5h16.9c6.8-7.6,11.2-17.1,12.5-27.3H96.2
					C94.3,35.2,90,44.6,83.7,52.5z"/>
			</g>
		</g>
	</g>
</g>
</svg>
