<?xml version="1.0" encoding="utf-8"?>
<!-- Generator: Adobe Illustrator 24.1.2, SVG Export Plug-In . SVG Version: 6.00 Build 0)  -->
<svg version="1.1" id="layer" xmlns="http://www.w3.org/2000/svg" xmlns:xlink="http://www.w3.org/1999/xlink" x="0px" y="0px"
	 viewBox="0 0 600.1 176.8" style="enable-background:new 0 0 600.1 176.8;" xml:space="preserve">
<style type="text/css">
	.st0{fill:#E81F76;}
	.st1{fill:#FFFFFF;}
</style>
<g>
	<circle class="st0" cx="173.5" cy="88.4" r="88.4"/>
	<g>
		<polygon class="st1" points="0,69.6 0,79.2 7.9,79.2 7.9,105.2 20.5,105.2 20.5,78.7 28.2,78.7 28.2,69.6 		"/>
		<polygon class="st1" points="36.9,69.6 36.9,105.2 48.8,105.2 48.8,91.9 57.2,91.9 57.2,105.2 69.3,105.2 69.3,69.6 57.2,69.6 
			57.2,82.2 48.8,82.2 48.8,69.6 		"/>
		<polygon class="st1" points="78.2,69.6 78.2,105.2 105.4,105.2 105.4,96.1 90.3,96.1 90.3,91.6 103,91.6 103,82.5 90.1,82.5 
			90.1,78 105.4,78 105.4,69.6 		"/>
		<path class="st1" d="M212.6,108.2l10.4-7.9V60.7l-16.1-15.3H150v82.9h28V111l11.9,17.3h35.4L212.6,108.2z M195.8,84.2H178V70.8
			h17.8V84.2z"/>
		<path class="st1" d="M587.4,108.2l10.4-7.9V60.7l-16.1-15.3h-56.9v82.9h28V111l11.9,17.3h35.4L587.4,108.2z M570.3,84.2h-17.8
			V70.8h17.8V84.2z"/>
		<rect x="236.1" y="45.6" class="st1" width="27.2" height="82.9"/>
		<polygon class="st1" points="326.5,45.6 326.5,76.8 304,45.6 276.7,45.6 276.7,128.5 304,128.5 304,95.1 326.5,128.5 353.7,128.5 
			353.7,45.6 		"/>
		<polygon class="st1" points="511.4,68.6 511.4,45.6 478.7,45.6 451.5,45.6 451.5,68.6 451.5,105.5 451.5,128.5 451.5,128.5 
			511.4,128.5 511.4,105.5 478.7,105.5 478.7,97.1 508.2,97.1 508.2,77 478.7,77 478.7,68.6 		"/>
		<polygon class="st1" points="438.6,71.6 438.6,57 425.2,45.6 379.7,45.6 366.1,56 366.1,116.9 379.7,128.5 425.2,128.5 
			438.6,116.9 438.6,99.5 438.6,97.1 438.6,78.3 402.5,78.3 402.5,99.5 411.4,99.5 411.4,105.5 393.3,105.5 393.3,68.6 411.6,68.6 
			411.6,71.6 		"/>
	</g>
</g>
</svg>
